<svg xmlns="http://www.w3.org/2000/svg" xmlns:xlink="http://www.w3.org/1999/xlink" width="192" zoomAndPan="magnify" viewBox="0 0 144 143.999998" height="192" preserveAspectRatio="xMidYMid meet" version="1.0"><defs><clipPath id="5efd35c2bb"><path d="M 17.316406 11.15625 L 126.816406 11.15625 L 126.816406 132.65625 L 17.316406 132.65625 Z M 17.316406 11.15625 " clip-rule="nonzero"/></clipPath><clipPath id="911398726f"><path d="M 79.753906 28.667969 L 126.9375 28.667969 L 126.9375 57.167969 L 79.753906 57.167969 Z M 79.753906 28.667969 " clip-rule="nonzero"/></clipPath><clipPath id="7c2fab952b"><path d="M 58.871094 81.421875 L 85.121094 81.421875 L 85.121094 124.921875 L 58.871094 124.921875 Z M 58.871094 81.421875 " clip-rule="nonzero"/></clipPath><clipPath id="abf4c50dfa"><path d="M 21.101562 14.398438 L 64.601562 14.398438 L 64.601562 40.648438 L 21.101562 40.648438 Z M 21.101562 14.398438 " clip-rule="nonzero"/></clipPath></defs><rect x="-14.4" width="172.8" fill="#ffffff" y="-14.4" height="172.799997" fill-opacity="1"/><rect x="-14.4" width="172.8" fill="#ffffff" y="-14.4" height="172.799997" fill-opacity="1"/><rect x="-14.4" width="172.8" fill="#23232    3" y="-14.4" height="172.799997" fill-opacity="1"/><g clip-path="url(#5efd35c2bb)"><path fill="#e5e5e5" d="M 89.164062 132.679688 L 54.96875 132.679688 L 54.96875 45.3125 L 17.359375 45.3125 L 17.359375 11.167969 L 126.742188 11.167969 L 126.773438 20.875 L 27.09375 20.875 L 27.09375 35.601562 L 64.707031 35.601562 L 64.707031 122.96875 L 79.429688 122.96875 L 79.429688 35.753906 L 89.164062 35.753906 L 89.164062 132.679688 " fill-opacity="1" fill-rule="nonzero"/></g><g clip-path="url(#911398726f)"><path fill="#e5e5e5" d="M 118.21875 52.933594 C 117.136719 52.933594 116.246094 53.742188 116.117188 54.789062 L 99.964844 54.789062 L 89.664062 44.492188 L 78.183594 44.492188 L 78.183594 45.019531 L 89.445312 45.019531 L 99.746094 55.320312 L 116.121094 55.320312 C 116.253906 56.359375 117.140625 57.164062 118.21875 57.164062 C 119.386719 57.164062 120.332031 56.214844 120.332031 55.046875 C 120.332031 53.878906 119.386719 52.933594 118.21875 52.933594 Z M 103.992188 46.28125 L 112.546875 46.28125 C 112.6875 47.320312 113.570312 48.117188 114.644531 48.117188 C 115.8125 48.117188 116.757812 47.171875 116.757812 46.003906 C 116.757812 44.835938 115.8125 43.886719 114.644531 43.886719 C 113.558594 43.886719 112.667969 44.703125 112.542969 45.753906 L 103.773438 45.753906 L 101.332031 48.195312 L 94.300781 48.195312 L 94.828125 48.722656 L 101.550781 48.722656 Z M 124.820312 40.804688 C 123.738281 40.804688 122.851562 41.613281 122.722656 42.65625 L 78.183594 42.65625 L 78.183594 43.183594 L 122.722656 43.183594 C 122.851562 44.226562 123.738281 45.035156 124.820312 45.035156 C 125.988281 45.035156 126.933594 44.085938 126.933594 42.917969 C 126.933594 41.75 125.988281 40.804688 124.820312 40.804688 Z M 78.183594 48.195312 L 78.183594 48.722656 L 92.214844 48.722656 L 91.683594 48.195312 Z M 104.402344 40.074219 L 115.328125 40.074219 C 115.460938 41.117188 116.347656 41.925781 117.425781 41.925781 C 118.597656 41.925781 119.542969 40.976562 119.542969 39.808594 C 119.542969 38.640625 118.597656 37.695312 117.425781 37.695312 C 116.347656 37.695312 115.460938 38.503906 115.328125 39.546875 L 104.621094 39.546875 L 100.757812 35.683594 L 78.183594 35.683594 L 78.183594 36.210938 L 100.539062 36.210938 Z M 94.152344 36.871094 L 93.40625 36.871094 L 89.445312 40.832031 L 78.183594 40.832031 L 78.183594 41.363281 L 89.664062 41.363281 Z M 99.964844 31.0625 L 108 31.0625 C 108.136719 32.101562 109.019531 32.902344 110.097656 32.902344 C 111.265625 32.902344 112.210938 31.957031 112.210938 30.789062 C 112.210938 29.621094 111.265625 28.671875 110.097656 28.671875 C 109.011719 28.671875 108.121094 29.484375 107.996094 30.535156 L 99.746094 30.535156 L 95.253906 35.023438 L 96.003906 35.023438 L 99.964844 31.0625 " fill-opacity="1" fill-rule="nonzero"/></g><g clip-path="url(#7c2fab952b)"><path fill="#e5e5e5" d="M 81.21875 89.417969 C 81.21875 90.417969 81.964844 91.238281 82.929688 91.355469 L 82.929688 106.265625 L 73.445312 115.777344 L 73.445312 126.371094 L 73.933594 126.371094 L 73.933594 115.976562 L 83.414062 106.46875 L 83.414062 91.351562 C 84.371094 91.230469 85.113281 90.410156 85.113281 89.417969 C 85.113281 88.339844 84.242188 87.464844 83.164062 87.464844 C 82.089844 87.464844 81.21875 88.339844 81.21875 89.417969 Z M 75.09375 102.550781 L 75.09375 94.652344 C 76.046875 94.523438 76.785156 93.707031 76.785156 92.71875 C 76.785156 91.636719 75.914062 90.765625 74.835938 90.765625 C 73.761719 90.765625 72.890625 91.636719 72.890625 92.71875 C 72.890625 93.71875 73.640625 94.542969 74.609375 94.65625 L 74.609375 102.753906 L 76.855469 105.003906 L 76.855469 111.496094 L 77.339844 111.007812 L 77.339844 104.804688 Z M 70.050781 83.324219 C 70.050781 84.320312 70.792969 85.140625 71.753906 85.261719 L 71.753906 126.371094 L 72.242188 126.371094 L 72.242188 85.261719 C 73.203125 85.140625 73.945312 84.320312 73.945312 83.324219 C 73.945312 82.246094 73.074219 81.371094 71.996094 81.371094 C 70.921875 81.371094 70.050781 82.246094 70.050781 83.324219 Z M 76.855469 126.371094 L 77.339844 126.371094 L 77.339844 113.421875 L 76.855469 113.910156 Z M 69.378906 102.171875 L 69.378906 92.082031 C 70.339844 91.964844 71.082031 91.144531 71.082031 90.148438 C 71.082031 89.070312 70.210938 88.195312 69.136719 88.195312 C 68.058594 88.195312 67.1875 89.070312 67.1875 90.148438 C 67.1875 91.144531 67.933594 91.964844 68.890625 92.082031 L 68.890625 101.96875 L 65.335938 105.535156 L 65.335938 126.371094 L 65.824219 126.371094 L 65.824219 105.738281 Z M 66.429688 111.632812 L 66.429688 112.320312 L 70.078125 115.976562 L 70.078125 126.371094 L 70.5625 126.371094 L 70.5625 115.777344 Z M 61.082031 106.265625 L 61.082031 98.847656 C 62.035156 98.722656 62.773438 97.90625 62.773438 96.914062 C 62.773438 95.835938 61.902344 94.960938 60.828125 94.960938 C 59.753906 94.960938 58.878906 95.835938 58.878906 96.914062 C 58.878906 97.914062 59.628906 98.738281 60.59375 98.851562 L 60.59375 106.46875 L 64.726562 110.613281 L 64.726562 109.925781 L 61.082031 106.265625 " fill-opacity="1" fill-rule="nonzero"/></g><g clip-path="url(#abf4c50dfa)"><path fill="#e5e5e5" d="M 56.605469 36.746094 C 55.605469 36.746094 54.785156 37.492188 54.667969 38.457031 L 39.753906 38.457031 L 30.246094 28.972656 L 19.652344 28.972656 L 19.652344 29.460938 L 30.042969 29.460938 L 39.554688 38.941406 L 54.667969 38.941406 C 54.792969 39.902344 55.609375 40.640625 56.605469 40.640625 C 57.683594 40.640625 58.558594 39.769531 58.558594 38.695312 C 58.558594 37.617188 57.683594 36.746094 56.605469 36.746094 Z M 43.472656 30.625 L 51.371094 30.625 C 51.5 31.578125 52.3125 32.3125 53.304688 32.3125 C 54.382812 32.3125 55.257812 31.441406 55.257812 30.367188 C 55.257812 29.289062 54.382812 28.417969 53.304688 28.417969 C 52.304688 28.417969 51.480469 29.167969 51.367188 30.136719 L 43.269531 30.136719 L 41.015625 32.382812 L 34.527344 32.382812 L 35.015625 32.871094 L 41.21875 32.871094 Z M 62.699219 25.578125 C 61.703125 25.578125 60.882812 26.324219 60.761719 27.28125 L 19.652344 27.28125 L 19.652344 27.769531 L 60.761719 27.769531 C 60.882812 28.730469 61.703125 29.472656 62.699219 29.472656 C 63.777344 29.472656 64.652344 28.601562 64.652344 27.527344 C 64.652344 26.449219 63.777344 25.578125 62.699219 25.578125 Z M 19.652344 32.382812 L 19.652344 32.871094 L 32.601562 32.871094 L 32.113281 32.382812 Z M 43.851562 24.90625 L 53.9375 24.90625 C 54.058594 25.867188 54.878906 26.613281 55.875 26.613281 C 56.953125 26.613281 57.828125 25.738281 57.828125 24.664062 C 57.828125 23.589844 56.953125 22.714844 55.875 22.714844 C 54.878906 22.714844 54.058594 23.460938 53.9375 24.421875 L 44.054688 24.421875 L 40.488281 20.863281 L 19.652344 20.863281 L 19.652344 21.351562 L 40.285156 21.351562 Z M 34.390625 21.957031 L 33.699219 21.957031 L 30.042969 25.605469 L 19.652344 25.605469 L 19.652344 26.09375 L 30.246094 26.09375 Z M 39.753906 16.609375 L 47.171875 16.609375 C 47.296875 17.566406 48.117188 18.304688 49.109375 18.304688 C 50.1875 18.304688 51.0625 17.433594 51.0625 16.355469 C 51.0625 15.28125 50.1875 14.410156 49.109375 14.410156 C 48.109375 14.410156 47.285156 15.15625 47.167969 16.125 L 39.554688 16.125 L 35.410156 20.257812 L 36.097656 20.257812 L 39.753906 16.609375 " fill-opacity="1" fill-rule="nonzero"/></g></svg>