<svg xmlns="http://www.w3.org/2000/svg" width="188" height="26" viewBox="0 0 187 26"><defs><clipPath id="a"><path d="M157 26h2-2Zm0 0"/></clipPath></defs><g clip-path="url(#a)"><path d="M158 26h-1a1 1 0 0 0 2 0h-1" style="stroke:none;fill-rule:nonzero;fill:#000;fill-opacity:1"/></g><path d="M23 0H3L2 1v1H0v2l1 1h8v1h3-3v5h2v2h-1v4h1-2v3h2v2H9v2h3v1l1 1h3l1-1v-1h-1v-2h-1 2v-2h-3v-3h3-3v-4h2v-2h-2V6h5-6V5h8l1-1V2h2V1l-1-1Zm-3 9h-4V8h4ZM8 7H2V6h6Zm45 5V6h-2V5l-1-1h1V2h-1 2l-2-1-3-1h-8l-3 1-2 1h-2l-1 2h-1l-1 1v1h2v6h-3 2v4h-1v2h1v4h-2l1 1h3l1 2h-1 1l3 1h8l3-1h3l1-1 1-1h-2v-1h2v-4h1v-6h-1Zm-6 0v4h2v2h-1v1l-1 1-1 1H36l-1-1-1-1v-1h-1v-2h1v-4h7-6V7l1-1h-2l1-1h10l1 1h2l1 1v5h-3Zm-2 6h-4 4Zm-6 2h-2v-1h2Zm6-12h-6V7h6Zm-5 7h-4 4Zm36-2 1-2h4v-1h-4V8h4l-1-2h-1V5h-1l-1-2h3l-1-1-1-1h-3l-3-1H58l-1 1h3v2h-3v1l1 1h16v1h2v2h-3l-1 2h4l-1 1H57v3h3v3h-2v3h2v1h-2v4h1l1 1h3l1-1h-2v-4h5v-1h-5v-3h2v-2h7v2h-2l2 3h3v1h-2l2 4h2v1h4l1-1h-2l-2-4h2v-1h-2l-3-3h3l-1-2 2-1h-3l1-1Zm-10-3h-7V9h7Zm2-4h-5 5Zm2 17h-6 6Zm41-18V4h-3V1h2l-1-1h-3v1h-3v3h2v1h-4v3h4v5h-1v5h-1v2l-1-2-2-4h2v-1h-1l-3-5h-2l-1-3h2l-1-1h-2l-1-2V1h2l-1-1h-4l-2 1h-2l-1 3h2v1h-2v3h2v5h-2v1h1v4h-1v2h3v4h-3 3v1l1 1h3v-2h-2 2v-6h-2v-4h4v-1h-2V8h1l3 5h1v1h-2l2 4h-1l1 2h3l2 4h-4 2l1 1 1 1h3l2-1 1-1h-1 3v-4h-3v-2h1v-4h3v-1h-1V8h-2V5Zm-11-3h-4 4Zm-2 20h-4 4Zm5-17h-5V4h5Zm21 1h-3 3Zm-8 17h-2 2Zm5-16V4h3-4V2h2V1l-1-1h-3l-1 1v1h-2v2h2-1v3h-1v2h2v4h-2 1v5h1v2h-1v2h1v2h-1v1l1 1h2l1-1v-1h1v-2h-1v-2h1v-2h-1v-5h3-1V9h-3V7Zm29 3V5h-3V4h2V3h-2V0h-3l-1 1v2h2v1h-2v1h2v5h-2v2h2v3h-1v1h1v2h-2v1l-1 1v1h2-13v-1l-1-1v-1h2v-2h2v-1h-2v-3h-2v-2h2V5h5V4h-5V3h-2V1l-1-1h-3v3h1v1h-1v1h2v5h-2v2h1v3h-1v1h1v2h-1v3h2l1 2h-2l1 1 2 1h2l3 1h7l4-1h-2l2-1 1-1h2v-2h-2v-3h2v-2h-1v-1h1v-3h-2v-2Zm-13 2h-4v-1h4Zm5 6h-5v-1h5Zm0-9h-5V8h5Zm41 3V7h2V5h-2V3h2V1h-2l-3-1h-3l-1 1h-1 2v2h-3v2h2l-1 2h-1l-3 5h3l-1 1-1 3h-1l-1-3v-1h-3l-2-5h2l-1-2h-2l-1-2h3-1V1h-3l-2-1h-2l-3 1h2v2h-4v2h4v2h-2v5h3v1h-3v3h1v6h-1v2h3v2h3l1-1v-1h-1v-2h3-2v-3h-3v-3h2v-3h1v-1h-2V7l2 5h3v1l1 3h-2l1 3h2l1 3h1-3l1 1h4l1-1h2l1-1v-2h1-2l1-3h2l1-3 1-1h-3l2-5h1v5h2v4h-2v3h2v3h-3 2v2h-1v1l1 1h3l1-1v-1h1v-2h-2 2v-3h-1v-3h1v-3h2v-1Zm-16 12h-5 5Zm7-21h-5 5Zm-2 6h-5 5Zm6 14h-4 4Zm0 0" style="stroke:none;fill-rule:nonzero;fill:#000;fill-opacity:1"/></svg>