<svg xmlns="http://www.w3.org/2000/svg" width="6500" height="900" version="1.0" viewBox="0 0 4875 675"><defs><clipPath id="a"><path d="M1 2508h1v6H1Zm0 0"/></clipPath><clipPath id="b"><path d="M1 2435h1v6H1Zm0 0"/></clipPath><clipPath id="c"><path d="M1 2415h1v6H1Zm0 0"/></clipPath><clipPath id="d"><path d="M1 2326h1v6H1Zm0 0"/></clipPath><clipPath id="e"><path d="M1 2301h1v6H1Zm0 0"/></clipPath><clipPath id="f"><path d="M1 2259h1v6H1Zm0 0"/></clipPath><clipPath id="g"><path d="M1 2213h1v6H1Zm0 0"/></clipPath><clipPath id="h"><path d="M1 2078h1v6H1Zm0 0"/></clipPath><clipPath id="i"><path d="M1 2394h1v5H1Zm0 0"/></clipPath><clipPath id="j"><path d="M1 2010h1v49H1Zm0 0"/></clipPath><clipPath id="k"><path d="M1 2324h1v32H1Zm0 0"/></clipPath><clipPath id="l"><path d="M1 2373h1v6H1Zm0 0"/></clipPath><clipPath id="m"><path d="M1 2118h1v27H1Zm0 0"/></clipPath><clipPath id="n"><path d="M1 2144h1v6H1Zm0 0"/></clipPath><clipPath id="o"><path d="M1 2167h1v6H1Zm0 0"/></clipPath><clipPath id="p"><path d="M1 2032h1v6H1Zm0 0"/></clipPath><clipPath id="q"><path d="M1 2010h1v6H1Zm0 0"/></clipPath><clipPath id="r"><path d="M1 1922h1v6H1Zm0 0"/></clipPath><clipPath id="s"><path d="M1 1943h1v49H1Zm0 0"/></clipPath><clipPath id="t"><path d="M5182 638h1v6h-1zm0 0"/></clipPath><clipPath id="u"><path d="M5182 565h1v6h-1zm0 0"/></clipPath><clipPath id="v"><path d="M5182 545h1v6h-1zm0 0"/></clipPath><clipPath id="w"><path d="M5182 456h1v6h-1zm0 0"/></clipPath><clipPath id="x"><path d="M5182 431h1v6h-1zm0 0"/></clipPath><clipPath id="y"><path d="M5182 389h1v6h-1zm0 0"/></clipPath><clipPath id="z"><path d="M5182 343h1v6h-1zm0 0"/></clipPath><clipPath id="A"><path d="M5182 208h1v6h-1zm0 0"/></clipPath><clipPath id="B"><path d="M5182 524h1v6h-1zm0 0"/></clipPath><clipPath id="C"><path d="M5182 140h1v50h-1zm0 0"/></clipPath><clipPath id="D"><path d="M5182 454h1v32h-1zm0 0"/></clipPath><clipPath id="E"><path d="M5182 503h1v6h-1zm0 0"/></clipPath><clipPath id="F"><path d="M5182 248h1v27h-1zm0 0"/></clipPath><clipPath id="G"><path d="M5182 274h1v6h-1zm0 0"/></clipPath><clipPath id="H"><path d="M5182 298h1v5h-1zm0 0"/></clipPath><clipPath id="I"><path d="M5182 162h1v6h-1zm0 0"/></clipPath><clipPath id="J"><path d="M5182 141h1v5h-1zm0 0"/></clipPath><clipPath id="K"><path d="M5182 52h1v6h-1zm0 0"/></clipPath><clipPath id="L"><path d="M5182 73h1v49h-1zm0 0"/></clipPath><clipPath id="M"><path d="M4209 1595h35v11h-35zm0 0"/></clipPath></defs><g clip-path="url(#a)"><path fill="currentColor" d="M1 2514h-541v-5H1v5"/></g><g clip-path="url(#b)"><path fill="currentColor" d="M1 2441h-284v-5H1v5"/></g><g clip-path="url(#c)"><path fill="currentColor" d="M1 2421h-284v-5H1v5"/></g><g clip-path="url(#d)"><path fill="currentColor" d="M1 2331h-75v-5H1v5"/></g><g clip-path="url(#e)"><path fill="currentColor" d="M1 2307h-109v-5H1v5"/></g><g clip-path="url(#f)"><path fill="currentColor" d="M1 2265h-163v-5H1v5"/></g><g clip-path="url(#g)"><path fill="currentColor" d="M1 2218h-394v-5H1v5"/></g><g clip-path="url(#h)"><path fill="currentColor" d="M1 2083h-394v-5H1v5"/></g><g clip-path="url(#i)"><path fill="currentColor" d="M1 2399h-401v-5H1v5"/></g><g clip-path="url(#j)"><path fill="currentColor" d="M1 2059h-404l-42-44h-575v-4h577l43 43H1v5"/></g><g clip-path="url(#k)"><path fill="currentColor" d="M1 2355h-227l-33-25h-39v-5h41l33 25H1v5"/></g><g clip-path="url(#l)"><path fill="currentColor" d="M1 2378h-268v-5H1v5"/></g><g clip-path="url(#m)"><path fill="currentColor" d="m-153 2144-3-3 22-22H1v4h-133l-21 21"/></g><g clip-path="url(#n)"><path fill="currentColor" d="M1 2149h-90v-4H1v4"/></g><g clip-path="url(#o)"><path fill="currentColor" d="M1 2173h-66v-5H1v5"/></g><g clip-path="url(#p)"><path fill="currentColor" d="M1 2038h-357v-5H1v5"/></g><g clip-path="url(#q)"><path fill="currentColor" d="M1 2016h-281v-5H1v5"/></g><g clip-path="url(#r)"><path fill="currentColor" d="M1 1927h-341v-5H1v5"/></g><g clip-path="url(#s)"><path fill="currentColor" d="M-214 1991h-66v-5h64l51-42H1v4h-164l-51 43"/></g><g clip-path="url(#t)"><path fill="currentColor" d="M5183 644h541v-5h-541v5"/></g><g clip-path="url(#u)"><path fill="currentColor" d="M5183 571h284v-5h-284v5"/></g><g clip-path="url(#v)"><path fill="currentColor" d="M5183 551h284v-5h-284v5"/></g><g clip-path="url(#w)"><path fill="currentColor" d="M5183 461h75v-5h-75v5"/></g><g clip-path="url(#x)"><path fill="currentColor" d="M5183 437h109v-5h-109v5"/></g><g clip-path="url(#y)"><path fill="currentColor" d="M5183 395h163v-5h-163v5"/></g><g clip-path="url(#z)"><path fill="currentColor" d="M5183 348h394v-5h-394v5"/></g><g clip-path="url(#A)"><path fill="currentColor" d="M5183 213h394v-5h-394v5"/></g><g clip-path="url(#B)"><path fill="currentColor" d="M5183 529h401v-5h-401v5"/></g><g clip-path="url(#C)"><path fill="currentColor" d="M5183 189h404l42-43h575v-5h-577l-43 43h-401v5"/></g><g clip-path="url(#D)"><path fill="currentColor" d="M5183 485h227l33-25h39v-5h-41l-33 25h-225v5"/></g><g clip-path="url(#E)"><path fill="currentColor" d="M5183 508h268v-4h-268v4"/></g><g clip-path="url(#F)"><path fill="currentColor" d="m5337 275 3-4-22-22h-135v5h133l21 21"/></g><g clip-path="url(#G)"><path fill="currentColor" d="M5183 280h90v-5h-90v5"/></g><g clip-path="url(#H)"><path fill="currentColor" d="M5183 303h66v-5h-66v5"/></g><g clip-path="url(#I)"><path fill="currentColor" d="M5183 168h357v-5h-357v5"/></g><g clip-path="url(#J)"><path fill="currentColor" d="M5183 146h281v-5h-281v5"/></g><g clip-path="url(#K)"><path fill="currentColor" d="M5183 57h341v-5h-341v5"/></g><g clip-path="url(#L)"><path fill="currentColor" d="M5398 122h66v-5h-64l-51-43h-166v5h164l51 43"/></g><g clip-path="url(#M)" transform="translate(-110 -928)"><path fill="currentColor" d="M4232 1595a11 11 0 0 1-11 0h-11a19 19 0 0 0 34 0h-12"/></g><path fill="currentColor" d="M612 0H83c-7 0-23 3-23 28v27H-1v37c0 27 16 30 23 30h204v24h88v19h-73v116h47v59h-34v90h34v20h-47v58h47v60h-44v58h70v20c0 25 16 28 22 28h74c6 0 22-3 22-28v-20h-21v-58h-23 48v-60h-75v-58h75v-20h-63v-90h53v-59h-65V165h145v-19H345v-24h204c8 0 23-3 23-30V55h63V28c0-25-16-28-23-28zm-83 228H413v-22h116Zm-321-51H60v-12h148Zm1180 122v-43c0-40-3-76-9-106h-58l-1-9c-4-19-10-36-18-50h37c-4-12-10-22-17-31l-10-10h44c-14-16-32-27-53-35-25-9-55-15-90-15h-194c-34 0-66 6-90 15-21 8-37 19-52 35h-43l-10 10c-7 9-12 19-17 31h-38c-8 14-13 31-17 50l-2 9h59c-6 30-9 66-9 106v43h-58v21h37v96h-29v2c0 20 1 39 3 56h24a371 380 0 0 0 18 91h-53l8 20h74a140 143 0 0 0 47 58h-43c10 8 21 14 33 18 23 9 54 13 88 13h196c35 0 65-4 89-13 12-4 23-10 33-18h44c11-8 20-16 29-27 7-10 13-20 18-31h-52l8-20h31l8-30c4-18 7-38 9-61h23c2-17 3-36 3-56v-2h-14v-96h-29v-21zm-162 21v96h43v17l-2 41h-24l-2 19c-3 15-7 28-14 36-5 9-13 15-23 19-11 4-24 5-41 5H977c-17 0-32-1-43-5-9-4-17-10-23-19-6-8-11-21-13-36l-2-19h-25c-2-12-2-25-2-41v-17h28v-96h180v-21H918v-56c0-24 1-45 4-61 2-14 6-24 11-32h-58l2-4c6-9 14-15 24-19 10-3 24-5 41-5h186c18 0 31 2 42 5 10 4 18 10 23 19l3 4h57c5 8 9 19 12 32 3 16 4 37 4 61v56h-63v21zm-45 148h-117v-11h117zm-153 40h-76v-6h76zm153-307h-152v-15h152Zm-137 200H932v-8h112zm946-57c13-18 22-40 27-64h100l4-20h-109c4-19 5-38 5-59h84v-3c0-20-1-39-4-55h-31v-1h-35c-3-22-7-41-14-58h62c-5-12-10-22-17-31-7-11-16-21-27-28h-69c-23-16-52-25-89-25h-368c-6 0-20 3-22 25h67v59h-62v10c0 25 16 28 23 28h347c20 0 34 5 42 17l1 3h35v1h31c8 12 12 30 12 55l-1 3h-83c0 25-5 44-13 56l-2 3h108c-8 9-21 15-40 15h-347c-3 0-9 0-14 5h-100c-5 4-9 11-9 23v67h76v59h-55v95h58v20h-58v102l1 9h36c3 17 16 19 22 19h72c7 0 20-2 23-19h-38l1-9V544h132v-20h-132v-95h56v-33h168l18 33h-56l54 95h59l10 20h-58l61 111h37l1 4 8 11c4 3 10 4 18 4h87c9 0 17-6 18-15v-4h-36c0-6-1-13-3-17l-54-94h58l-11-20h-59l-55-95h55l-20-35c26-4 48-11 65-24h-76c9-7 18-16 25-26zm-280-97h-168v-22h168zm74-84h-148v-10h148zm42 440h-147v-11h147zm1067-465V97h-85V38h59v-9c0-26-15-29-22-29h-71c-6 0-22 3-22 29v9h-60v59h47v41h-115v59h121v151h-42v19h6v97h-25v58h-3l-3-2-30-56h24l-53-97h52l-10-19h-17l-82-151h-56l-33-59h51l-24-41h-45l-20-37-12-22h58l-4-7a64 66 0 0 0-39-29l-29-2h-58c-24 0-42 9-53 24-3 3-6 8-8 14h-59c-5 14-8 33-8 59h45v41h-49v59h54v151h-50v19h16v97h-27v59h71v89h-56v20h65v14c0 25 16 28 23 28h71c7 0 22-3 22-28v-14h-65v-20h57V464h-45v-97h93v-19h-58V197h29l82 151h17l12 19h-53l54 97h-25l33 59h74l49 89h-102l2 3 11 17h44l9 13a61 63 0 0 0 39 27c7 2 16 2 27 2h58c23 0 41-8 52-23 4-5 6-12 9-19h-9l6-20h65c2-12 3-26 3-43v-46h-76v-59h24v-97h68v-19h-33V197h-55v-59Zm-282-75h-117V52h117zm-58 516h-112v-9h112zm122-459h-111v-9h111zm560 41h-75v-8h75zm-221 434h-53v-7h53zm130-402v-77h80V98h-103V48h60V29c0-25-18-29-26-29h-84c-8 0-27 4-27 29v19h-41v50h59v18h-36v77h-31v52h59v82h-69v18h27v129h27v51h-27v35h35v51h-32v35c0 25 16 28 23 28h74c7 0 23-3 23-28v-35h30v-51h-35v-35h28v-51h-28V345h72v-18h-31v-82h-58v-52zm760 59V135h-59v-19h44V70h-44V28c0-25-15-28-22-28h-73c-7 0-23 3-23 28v42h44v46h-44v19h59v117h-59v59h44v89h-30v21h30v10l-1 49h-46l-1 13c-3 15-7 28-13 36l-8 8h29v1h30c-4 4-10 6-15 10-12 3-26 5-42 5h-173c-16 0-31-2-41-5-6-4-11-6-15-10h-29l-1-1h-29c-4-2-6-5-8-8-6-8-11-21-13-36l-3-13h45c-2-15-2-30-2-49v-10h52v-21h-52v-89h-46v-59h60V135h131v-19h-145V70h-46V28c0-25-15-28-22-28h-72c-7 0-23 3-23 28v42h44v46h-44v19h59v117h-59v59h44v89h-30v18l1 3h29l2 59h-44l8 55 1 2h29v1h30c5 22 12 41 21 58h-43l11 19c14 17 31 30 50 40h44l13 6c24 9 55 13 89 13h180c36 0 66-4 90-13l13-6h-44c19-10 36-23 50-40l12-19h44c9-17 16-36 21-58h-30v-1h-29l1-2c4-16 6-35 8-55h44l2-59h-29v-21h29v-89h-44v-59zm-325 60h-116v-22h116zm129 146h-130v-17h130zm0-235h-148v-27h148zm1073 97V181h46v-55h-63v-20l-1-18h63c-1-23-4-40-9-54h-55l-4-7c-9-17-27-27-53-27h-72c-10 0-20 1-28 4s-16 7-22 12c-4 5-9 11-12 18h55l-4 6-14 38-4 10h-62l-14 38h61l-21 55h-44l-54 139h57l-7 17h-8l-34 89h-23l-35-89h7l-7-17h-57l-54-139h46l-22-55h-62l-15-38h62l-4-10-13-38-4-6h-54c-4-7-8-13-13-18a78 78 0 0 0-50-15h-73c-27-1-45 9-55 26l-4 7h55c-5 14-8 31-9 54h-103v38h103v55h-46v139h58v17h-75v89h40v137h-30v19h7v53h58v11c0 25 16 28 23 28h68c7 0 23-3 23-28v-11h-23v-53h74v-19h-47v-82h-73v-55h54v-89h15v-17h-57V181h15l55 139h58l7 17h-8l35 89h-48l21 55h45l9 20a409 419 0 0 0 26 62h2l9 12 6 7h-58c6 5 13 10 20 12 9 3 20 5 32 5h32c12 0 24-2 33-5 7-2 14-7 20-12h58l4-7 10-12h-2l10-18c6-12 12-26 17-44l9-20h-45l21-55h48l36-89h7l8-17h-58l55-139h16v139h56v17h-7v89h-51v55h51v82h-89v19h77v53h-29v11c0 25 15 28 22 28h68c8 0 24-3 24-28v-11h30v-53h-49v-19h61v-82h-27v-55h27v-89h43v-17zm-439 308h-118v-10h118zm183-539h-117V79h117zm-48 140h-112v-8h112zm160 375h-112v-9h112zm0 0" style="stroke-width:1.01805"/></svg>